# xmcd
#
# Track frame offsets:
#	150
#	13049
#	26531
#	46334
#	62027
#	81987
#	100873
#	118122
#	135444
#	154558
#	165511
#	185233
#	198643
#	209934
#	230194
#
# Disc length: 3576 seconds
#
# Revision: 1
# Processed by: cddbd v1.5.2PL0 Copyright (c) Steve Scherf et al.
# Submitted via: EZCDAudioConverter 2.3.2.1
#
DISCID=d70df60f
DTITLE=Varios artistas -  'The Blues magazine 12-A suitcase ful o'Blues'
DYEAR=2014
DGENRE=Blues
TTITLE0=J. D. WILKES and The DIRT DAUBERS - Hidey hole
TTITLE1=The DEAD REDS - Born to survive
TTITLE2=Tommy CASTRO and The PAIN KILLERS - The devil you know
TTITLE3=The HOLMES Brothers - Stayed at the party 
TTITLE4=Robert CRAY - What would you say
TTITLE5=Kaz HAWKINS - Better days
TTITLE6=Laurence JONES - Feels like home
TTITLE7=Alex McKOWN - Release me
TTITLE8=Rabbit FOOT - 1234
TTITLE9=Sunday WILDE - He digs me
TTITLE10=Zoe SCHWARTZ and BLUE COMMOTION - Liberated woman
TTITLE11=PEANUT BUTTER LOVESICLE - Black eyed Blues
TTITLE12=The WHEREABOUTS - Twenty thirty three
TTITLE13=Tony DAVENPORT - Gonna find me a train
TTITLE14=ELECTRIC BLUE - Coffee Shop
EXTD=
EXTT0=
EXTT1=
EXTT2=
EXTT3=
EXTT4=
EXTT5=
EXTT6=
EXTT7=
EXTT8=
EXTT9=
EXTT10=
EXTT11=
EXTT12=
EXTT13=
EXTT14=
PLAYORDER=
